{"glyphs":{":":{"x_min":0,"x_max":268,"ha":268,"o":""},"$":{"x_min":0,"x_max":507,"ha":507,"o":"m 201 -9 q 152 -4 114 16 q 75 36 50 66 l 71 94 q 83 108 98 108 q 104 108 113 101 q 121 94 134 85 q 147 76 167 67 q 186 59 213 55 l 251 248 q 225 257 200 267 q 175 277 155 290 q 135 303 123 321 q 110 339 110 364 q 110 395 123 424 q 136 453 161 476 q 186 500 222 514 q 258 529 306 532 l 326 631 l 373 631 l 354 530 q 394 525 426 510 q 458 494 479 470 l 456 439 q 451 434 447 430 q 443 427 437 427 q 430 427 423 432 q 416 438 405 445 q 394 452 378 458 q 363 465 341 468 l 305 282 q 332 271 357 260 q 383 250 404 237 q 425 224 438 208 q 451 192 451 171 q 451 136 436 104 q 421 72 395 48 q 368 23 331 8 q 293 -7 249 -10 l 229 -112 l 181 -112 z m 376 151 q 376 166 370 177 q 363 189 353 199 q 342 208 327 216 q 312 224 295 231 l 261 54 q 291 57 312 65 q 334 74 348 87 q 362 100 369 116 q 376 133 376 151 z m 189 381 q 189 368 195 356 q 200 345 210 335 q 219 326 232 317 q 246 309 261 301 l 294 469 q 267 467 247 459 q 228 451 215 439 q 202 428 195 413 q 189 398 189 381 z"},"?":{"x_min":0,"x_max":463,"ha":463,"o":"m 120 615 q 135 628 153 640 q 171 652 192 662 q 212 671 236 677 q 259 682 286 682 q 319 682 345 672 q 372 662 391 645 q 409 627 419 604 q 429 580 429 552 q 429 512 418 484 q 407 457 390 436 q 374 416 353 401 q 333 386 314 372 q 296 358 281 343 q 267 328 262 308 l 244 235 l 188 235 l 192 313 q 193 336 205 353 q 218 371 236 386 q 253 401 274 416 q 294 431 312 448 q 330 465 341 486 q 353 507 353 536 q 353 573 330 594 q 308 614 271 614 q 244 614 225 607 q 206 600 192 592 q 178 583 169 576 q 160 569 153 569 q 143 569 137 580 z m 146 52 q 146 64 150 75 q 155 86 163 95 q 171 103 182 108 q 192 112 205 112 q 217 112 228 108 q 239 103 247 95 q 255 86 260 75 q 265 64 265 52 q 265 40 260 29 q 255 18 247 10 q 239 2 228 -2 q 217 -7 205 -7 q 192 -7 182 -2 q 171 2 163 10 q 155 18 150 29 q 146 40 146 52 z"},"<":{"x_min":0,"x_max":498,"ha":498,"o":"m 75 326 l 76 326 l 77 334 l 464 524 l 457 463 q 456 455 451 449 q 446 443 436 438 l 214 332 q 195 323 170 317 q 193 312 211 302 l 407 196 q 422 187 421 171 l 413 110 l 72 299 z"},"'":{"x_min":0,"x_max":221,"ha":221,"o":"m 201 675 l 184 538 l 167 465 q 164 451 156 442 q 149 434 135 434 q 123 434 117 442 q 111 451 111 465 l 112 538 l 129 675 z"},"=":{"x_min":0,"x_max":498,"ha":498,"o":"m 50 270 l 454 270 l 447 208 l 42 208 z m 70 427 l 473 427 l 466 365 l 62 365 z"},"a":{"x_min":0,"x_max":514,"ha":514,"o":"m 414 0 l 369 0 q 352 0 346 9 q 340 17 341 29 l 350 131 q 332 100 310 74 q 289 49 265 31 q 242 13 215 3 q 188 -7 160 -7 q 129 -7 104 4 q 79 16 61 37 q 43 59 33 91 q 24 123 24 165 q 24 207 35 247 q 47 287 68 322 q 88 357 118 387 q 147 417 183 438 q 218 460 260 472 q 301 484 346 484 q 378 484 410 479 q 441 475 470 462 z m 192 64 q 217 64 242 79 q 266 93 288 119 q 310 145 328 180 q 347 215 361 257 l 381 418 q 370 420 358 421 q 346 422 335 422 q 289 422 248 402 q 207 382 176 349 q 145 315 127 271 q 109 228 109 179 q 109 64 192 64 z"},"L":{"x_min":0,"x_max":420,"ha":420,"o":"m 137 72 l 387 72 l 378 0 l 42 0 l 121 642 l 207 642 z"},"3":{"x_min":0,"x_max":507,"ha":507,"o":""},";":{"x_min":0,"x_max":268,"ha":268,"o":""},"J":{"x_min":0,"x_max":319,"ha":319,"o":"m 264 213 q 251 107 202 50 q 153 -7 72 -7 q 51 -7 32 -4 q 14 -1 -5 5 l 1 56 q 2 62 7 67 q 11 72 20 72 q 28 72 41 69 q 53 65 73 65 q 93 65 110 73 q 127 80 140 97 q 154 115 164 143 q 173 171 178 211 l 231 642 l 316 642 z"},"V":{"x_min":0,"x_max":567,"ha":567,"o":"m 55 642 l 124 642 q 135 642 142 636 q 149 630 151 622 l 258 167 q 261 152 264 134 q 268 117 270 98 q 282 135 297 167 l 515 621 q 519 629 527 635 q 536 642 546 642 l 616 642 l 296 0 l 218 0 z"},"\"":{"x_min":0,"x_max":401,"ha":401,"o":""},"7":{"x_min":0,"x_max":507,"ha":507,"o":""},"S":{"x_min":0,"x_max":452,"ha":452,"o":"m 426 542 q 421 535 417 531 q 412 528 405 528 q 397 528 389 536 q 380 544 366 553 q 353 562 333 570 q 313 578 284 578 q 254 578 231 569 q 208 560 193 545 q 177 530 168 510 q 160 489 160 466 q 160 442 171 425 q 183 408 201 395 q 219 382 242 371 q 266 360 290 350 q 314 339 337 328 q 361 316 379 300 q 397 285 408 264 q 419 244 419 216 q 419 170 403 130 q 387 89 357 59 q 327 29 284 11 q 241 -7 188 -7 q 129 -7 82 16 q 36 39 5 77 l 36 118 q 40 123 45 126 q 51 129 57 129 q 62 129 69 124 q 76 119 83 112 q 91 105 102 96 q 112 88 126 81 q 140 74 157 69 q 175 64 199 64 q 230 64 256 73 q 282 83 300 100 q 317 118 327 142 q 336 166 336 195 q 336 220 325 236 q 314 252 296 264 q 278 275 255 284 q 231 292 207 301 q 183 310 160 321 q 137 332 119 349 q 101 365 90 389 q 79 413 79 448 q 79 487 93 523 q 108 560 135 587 q 163 615 203 631 q 243 648 292 648 q 343 648 384 629 q 425 610 452 578 z"},"}":{"x_min":0,"x_max":314,"ha":314,"o":"m 205 153 q 205 144 205 131 q 206 119 207 106 q 208 93 208 81 q 209 68 209 58 q 209 12 198 -24 q 188 -60 166 -84 q 145 -109 114 -122 q 83 -135 42 -135 l 19 -135 l 23 -99 q 24 -89 31 -85 q 39 -81 44 -81 l 52 -81 q 87 -81 109 -54 q 131 -27 135 22 q 136 44 136 65 q 136 86 136 107 q 135 127 135 146 q 135 166 136 185 q 138 207 144 225 q 151 243 161 256 q 172 270 186 279 q 200 289 215 293 q 189 301 174 323 q 159 345 159 375 q 159 403 166 430 q 173 457 182 483 q 190 510 198 538 q 205 566 205 595 q 205 628 189 648 q 173 668 144 668 l 136 668 q 131 668 125 672 q 119 676 120 685 l 125 722 l 147 722 q 180 722 204 713 q 228 704 244 687 q 260 670 268 647 q 276 624 276 596 q 276 565 269 537 q 262 508 253 481 q 244 455 237 428 q 229 402 229 374 q 229 349 242 334 q 255 318 280 318 l 274 269 q 205 269 205 153 z"},"Z":{"x_min":0,"x_max":468,"ha":468,"o":"m 498 642 l 493 614 q 492 608 490 603 q 487 598 483 592 l 124 69 l 422 69 l 413 0 l 3 0 l 7 27 q 8 33 11 38 q 14 43 18 48 l 376 572 l 89 572 l 99 642 z"},"x":{"x_min":0,"x_max":433,"ha":433,"o":"m 165 257 l 55 478 l 132 478 q 141 478 146 475 q 150 472 153 466 l 229 303 q 231 308 234 313 q 236 317 240 322 l 342 464 q 347 471 351 474 q 355 478 362 478 l 439 478 l 273 257 l 395 0 l 318 0 q 309 0 304 5 q 298 10 295 17 l 210 206 q 207 196 200 188 l 77 16 q 72 9 66 5 q 61 0 52 0 l -23 0 z"},")":{"x_min":0,"x_max":303,"ha":303,"o":"m 168 385 q 168 419 165 457 q 162 495 155 532 q 148 570 139 606 q 129 642 117 674 q 111 688 116 696 q 120 704 128 708 l 167 730 q 187 689 201 646 q 215 604 224 560 q 232 517 237 474 q 241 432 241 393 q 241 326 233 263 q 226 201 206 137 q 186 73 151 6 q 116 -62 61 -138 l 27 -115 q 21 -111 18 -103 q 15 -96 24 -82 q 59 -28 85 27 q 112 82 131 139 q 149 197 159 258 q 168 319 168 385 z"},"&":{"x_min":0,"x_max":682,"ha":682,"o":"m 371 682 q 409 682 439 671 q 470 660 491 640 q 512 621 523 595 q 534 568 534 539 l 486 529 q 475 527 469 530 q 463 533 461 544 q 458 557 451 570 q 445 583 433 594 q 421 604 405 611 q 388 618 365 618 q 337 618 315 609 q 292 601 277 585 q 261 570 252 549 q 244 528 244 503 q 244 449 299 390 l 474 193 q 496 225 511 259 q 526 293 533 328 q 534 336 539 341 q 543 347 553 347 l 609 347 q 603 292 580 240 q 557 187 520 142 l 647 0 l 576 0 q 566 0 558 1 q 551 2 545 5 q 539 8 533 13 q 528 18 522 24 l 466 86 q 417 43 355 18 q 294 -7 224 -7 q 182 -7 146 4 q 110 16 84 38 q 59 60 44 91 q 30 122 30 161 q 30 197 43 230 q 57 263 81 290 q 105 318 138 339 q 170 361 208 375 q 166 437 166 498 q 166 536 181 570 q 195 604 222 628 q 249 653 287 668 q 325 682 371 682 z m 241 59 q 293 59 339 80 q 385 101 422 135 l 242 334 q 179 305 147 263 q 115 221 115 171 q 115 144 125 123 q 135 103 152 88 q 169 74 192 66 q 215 59 241 59 z"},"_":{"x_min":0,"x_max":498,"ha":498,"o":"m 382 -79 l 375 -134 l 33 -134 l 40 -79 z"},"v":{"x_min":0,"x_max":446,"ha":446,"o":"m 35 478 l 104 478 q 114 478 120 472 q 125 467 127 460 l 194 155 q 198 137 200 119 q 202 102 203 85 q 208 102 215 119 q 222 136 230 154 l 373 460 q 376 467 383 472 q 390 478 398 478 l 465 478 l 228 0 l 156 0 z"},"O":{"x_min":0,"x_max":654,"ha":654,"o":"m 636 367 q 636 312 625 263 q 613 214 592 173 q 570 131 540 98 q 510 65 472 42 q 435 18 391 6 q 348 -7 299 -7 q 240 -7 193 14 q 146 35 113 73 q 80 110 62 162 q 44 213 44 275 q 44 356 70 425 q 95 494 140 543 q 185 593 247 621 q 309 649 380 649 q 439 649 487 628 q 534 606 567 569 q 601 531 618 479 q 636 428 636 367 z m 547 365 q 547 413 535 452 q 523 492 500 519 q 477 547 444 562 q 411 577 370 577 q 317 577 274 556 q 230 535 198 495 q 167 456 149 401 q 132 345 132 277 q 132 229 144 189 q 156 150 179 123 q 202 95 235 80 q 268 65 309 65 q 362 65 406 86 q 449 107 481 146 q 512 185 530 240 q 547 296 547 365 z"},"(":{"x_min":0,"x_max":303,"ha":303,"o":"m 151 208 q 151 173 154 135 q 157 98 164 60 q 170 22 180 -14 q 189 -50 203 -82 q 208 -96 204 -103 q 199 -111 191 -115 l 152 -138 q 132 -97 118 -54 q 104 -11 95 32 q 86 76 82 118 q 78 161 78 200 q 78 267 86 329 q 93 392 113 455 q 133 519 168 586 q 203 654 258 730 l 293 708 q 299 703 302 696 q 305 688 295 674 q 261 620 234 567 q 207 513 188 457 q 170 400 160 338 q 151 277 151 208 z"},"C":{"x_min":0,"x_max":522,"ha":522,"o":"m 289 67 q 331 67 358 77 q 385 87 403 99 q 420 111 431 121 q 441 131 448 131 q 457 131 459 126 l 490 89 q 450 43 397 18 q 344 -7 274 -7 q 220 -7 177 13 q 133 34 104 70 q 74 107 58 158 q 42 208 42 269 q 42 353 67 423 q 92 493 136 543 q 180 593 239 621 q 298 649 365 649 q 398 649 424 643 q 451 637 472 626 q 494 615 512 599 q 530 583 544 564 l 515 528 q 511 524 507 521 q 502 518 496 518 q 490 518 485 522 q 479 526 472 533 q 465 539 456 546 q 447 553 434 560 q 420 566 402 570 q 384 574 360 574 q 312 574 270 553 q 228 533 197 494 q 166 455 148 400 q 130 345 130 276 q 130 228 142 189 q 153 150 175 123 q 196 96 225 81 q 254 67 289 67 z"},"W":{"x_min":0,"x_max":890,"ha":890,"o":"m 56 642 l 124 642 q 135 642 142 636 q 149 630 150 622 l 226 170 q 228 158 229 144 q 230 130 232 115 q 236 131 241 145 q 246 159 251 171 l 454 621 q 457 629 465 635 q 474 642 484 642 l 505 642 q 516 642 523 636 q 530 630 531 622 l 621 170 q 624 159 625 146 q 626 132 628 118 q 632 132 636 146 q 641 159 646 170 l 833 621 q 836 629 846 635 q 855 642 866 642 l 934 642 l 660 0 l 583 0 l 486 491 q 485 498 484 507 q 482 515 481 525 q 475 505 469 491 l 250 0 l 173 0 z"},"A":{"x_min":0,"x_max":579,"ha":579,"o":"m 552 0 l 486 0 q 474 0 468 5 q 461 11 459 21 l 421 176 l 146 176 l 69 21 q 65 12 57 6 q 48 0 38 0 l -29 0 l 296 642 l 384 642 z m 176 238 l 406 238 l 342 501 q 339 513 336 528 q 333 543 331 561 q 324 543 317 528 q 311 512 306 500 z"},"f":{"x_min":0,"x_max":305,"ha":305,"o":"m 182 407 l 135 16 l 111 -81 q 107 -99 97 -108 q 87 -117 68 -117 l 34 -117 l 98 406 l 47 413 q 38 414 32 419 q 27 424 28 434 l 32 469 l 105 469 l 111 514 q 116 555 132 587 q 148 619 173 641 q 197 663 229 674 q 261 686 298 686 q 328 686 355 676 l 347 632 q 346 627 343 625 q 339 623 333 623 q 328 622 320 622 q 313 623 304 623 q 282 623 263 617 q 245 611 230 598 q 216 584 206 563 q 196 542 193 512 l 187 469 l 317 469 l 309 407 z"},"Q":{"x_min":0,"x_max":664,"ha":664,"o":"m 640 367 q 640 312 629 264 q 617 215 596 174 q 575 133 545 100 q 516 66 479 43 l 610 -133 l 540 -133 q 524 -133 512 -128 q 500 -124 492 -112 l 404 8 q 380 1 355 -3 q 330 -7 303 -7 q 244 -7 197 14 q 149 35 116 73 q 83 110 66 162 q 48 213 48 275 q 48 356 73 425 q 99 494 144 543 q 189 593 251 621 q 312 649 384 649 q 443 649 491 628 q 538 606 571 569 q 604 531 622 479 q 640 428 640 367 z m 551 365 q 551 413 539 452 q 527 492 504 519 q 481 547 448 562 q 415 577 374 577 q 321 577 278 556 q 234 535 202 495 q 171 456 153 401 q 136 345 136 277 q 136 229 148 189 q 160 150 183 123 q 206 95 239 80 q 272 65 313 65 q 366 65 409 86 q 453 107 485 146 q 516 185 534 240 q 551 296 551 365 z"},"w":{"x_min":0,"x_max":715,"ha":715,"o":"m 37 478 l 101 478 q 110 478 117 473 q 123 468 125 459 l 174 155 q 176 139 178 123 q 179 107 180 91 q 186 107 192 123 q 198 138 205 155 l 345 462 q 348 469 354 474 q 360 479 369 479 l 404 479 q 414 479 419 474 q 425 469 426 462 l 486 155 q 489 139 491 123 q 494 107 496 91 q 500 107 505 122 q 510 138 517 154 l 646 460 q 649 467 656 472 q 663 478 671 478 l 733 478 l 523 0 l 458 0 q 446 0 443 16 l 377 338 q 375 353 373 369 q 371 361 368 353 q 365 345 361 337 l 213 16 q 207 0 194 0 l 132 0 z"},"-":{"x_min":0,"x_max":306,"ha":306,"o":"m 56 317 l 272 317 l 263 247 l 47 247 z"},"E":{"x_min":0,"x_max":488,"ha":488,"o":"m 488 572 l 201 572 l 175 357 l 406 357 l 398 290 l 167 290 l 140 69 l 427 69 l 418 0 l 44 0 l 123 642 l 497 642 z"},"s":{"x_min":0,"x_max":389,"ha":389,"o":"m 358 400 q 354 395 351 392 q 347 390 340 390 q 333 390 325 395 q 317 400 305 406 q 293 413 277 418 q 260 423 235 423 q 212 423 194 417 q 175 412 161 401 q 148 391 140 377 q 133 364 133 349 q 133 332 142 320 q 151 307 166 297 q 181 287 200 278 q 219 270 239 261 q 259 252 278 243 q 297 233 312 221 q 328 209 337 194 q 346 179 346 158 q 346 125 332 95 q 318 65 293 43 q 268 20 232 6 q 196 -7 151 -7 q 103 -7 66 9 q 29 25 6 51 l 26 83 q 35 96 49 96 q 57 96 65 89 q 73 83 85 74 q 97 66 115 60 q 134 53 162 53 q 187 53 207 60 q 227 67 241 79 q 255 90 262 106 q 270 121 270 139 q 270 163 254 178 q 238 193 215 204 q 191 215 163 225 q 136 235 112 248 q 88 261 73 280 q 57 299 57 330 q 57 359 70 387 q 83 416 106 437 q 130 458 164 471 q 198 484 240 484 q 286 484 320 470 q 354 456 379 431 z"},">":{"x_min":0,"x_max":498,"ha":498,"o":"m 447 326 l 444 299 l 56 110 l 63 171 q 64 179 69 185 q 73 191 83 196 l 306 302 q 325 312 350 317 q 326 323 309 332 l 113 438 q 104 443 101 449 q 98 455 99 463 l 106 524 l 448 334 z"},"l":{"x_min":0,"x_max":229,"ha":229,"o":"m 43 0 l 126 694 l 211 694 l 127 0 z"},"8":{"x_min":0,"x_max":507,"ha":507,"o":"m 239 -7 q 195 -7 160 5 q 125 17 100 39 q 75 61 61 92 q 48 123 48 161 q 48 237 85 285 q 123 334 193 353 q 151 371 130 404 q 109 438 109 484 q 109 526 125 562 q 141 599 170 625 q 198 652 238 667 q 277 683 323 683 q 363 683 394 670 q 426 658 448 637 q 470 616 481 587 q 493 558 493 525 q 493 463 462 418 q 431 373 372 352 q 423 335 450 300 q 477 264 477 209 q 477 159 459 119 q 441 79 409 51 q 377 23 333 8 q 290 -7 239 -7 z m 247 58 q 280 58 306 69 q 333 80 352 100 q 371 120 381 148 q 391 176 391 209 q 391 238 382 259 q 373 279 357 292 q 341 305 321 311 q 301 317 278 317 q 252 317 226 309 q 200 301 180 284 q 159 266 146 237 q 134 208 134 167 q 134 143 141 123 q 149 103 163 89 q 177 74 198 66 q 219 58 247 58 z m 286 383 q 317 383 341 394 q 365 405 381 424 q 396 443 404 468 q 412 493 412 521 q 412 541 406 559 q 400 577 388 590 q 376 604 358 611 q 340 619 315 619 q 285 619 261 608 q 238 598 222 579 q 206 561 198 536 q 189 511 189 483 q 189 464 195 446 q 200 428 212 414 q 224 400 242 392 q 260 383 286 383 z"},"\\":{"x_min":0,"x_max":384,"ha":384,"o":"m 45 684 l 81 684 q 96 684 107 676 q 118 667 122 653 l 346 -43 l 311 -43 q 297 -43 284 -35 q 272 -27 268 -11 z"},"e":{"x_min":0,"x_max":478,"ha":478,"o":"m 450 373 q 450 342 436 316 q 422 291 385 270 q 347 249 281 234 q 216 218 113 209 q 112 205 112 201 q 112 197 112 193 q 112 128 144 94 q 175 61 239 61 q 278 61 304 70 q 330 80 348 92 q 366 103 379 113 q 392 123 404 123 q 413 123 420 114 l 442 88 q 416 63 390 45 q 365 27 339 16 q 313 4 285 -1 q 256 -7 224 -7 q 178 -7 142 7 q 106 21 81 47 q 56 73 42 109 q 29 146 29 191 q 29 228 37 263 q 45 299 62 332 q 78 365 101 392 q 124 420 154 440 q 184 461 220 472 q 256 484 297 484 q 337 484 366 473 q 395 463 414 447 q 433 431 441 411 q 450 391 450 373 z m 293 423 q 259 423 231 411 q 203 398 181 377 q 159 356 144 327 q 128 298 121 266 q 175 271 216 279 q 256 286 284 294 q 312 302 330 311 q 347 319 357 329 q 367 339 370 349 q 374 359 374 371 q 374 379 369 388 q 365 397 355 405 q 346 413 330 418 q 315 423 293 423 z"},"b":{"x_min":0,"x_max":514,"ha":514,"o":"m 40 0 l 124 694 l 208 694 l 166 356 q 185 385 206 409 q 228 433 251 449 q 274 466 300 475 q 326 484 352 484 q 415 484 451 439 q 486 395 486 309 q 486 270 478 232 q 470 193 455 158 q 439 123 418 93 q 396 62 370 41 q 343 19 312 6 q 281 -7 247 -7 q 207 -7 175 10 q 143 26 122 56 l 114 25 q 112 12 106 6 q 100 0 85 0 z m 320 416 q 296 416 272 402 q 248 388 225 363 q 203 337 184 303 q 165 268 150 227 l 135 105 q 154 80 180 70 q 207 60 234 60 q 272 60 303 82 q 334 104 356 138 q 378 173 390 216 q 401 259 401 301 q 401 357 380 387 q 359 416 320 416 z"},"%":{"x_min":0,"x_max":715,"ha":715,"o":"m 357 538 q 357 492 343 456 q 329 420 305 395 q 282 370 251 357 q 221 344 189 344 q 162 344 138 354 q 115 364 99 382 q 83 400 73 427 q 64 454 64 487 q 64 533 77 569 q 90 605 113 630 q 136 655 166 668 q 196 682 231 682 q 259 682 282 672 q 305 662 322 644 q 338 625 348 598 q 357 571 357 538 z m 292 537 q 292 561 287 578 q 282 595 273 606 q 264 617 251 622 q 239 627 225 627 q 205 627 187 620 q 169 612 156 595 q 144 578 136 551 q 128 524 128 487 q 128 440 147 420 q 167 399 196 399 q 215 399 233 407 q 250 415 263 431 q 276 447 284 473 q 292 500 292 537 z m 602 661 q 607 666 614 670 q 621 675 632 675 l 691 675 l 134 13 q 129 7 122 4 q 115 0 106 0 l 45 0 z m 674 186 q 674 139 660 103 q 646 67 622 42 q 599 18 568 5 q 538 -8 506 -8 q 479 -8 456 1 q 433 11 416 30 q 400 48 391 74 q 381 101 381 134 q 381 180 395 217 q 408 253 430 278 q 453 303 483 316 q 514 330 548 330 q 576 330 599 320 q 622 310 639 292 q 655 273 665 246 q 674 219 674 186 z m 609 185 q 609 209 604 226 q 599 243 590 253 q 581 264 568 269 q 556 274 542 274 q 521 274 504 267 q 487 259 474 242 q 461 225 453 198 q 446 171 446 134 q 446 110 451 94 q 456 78 465 67 q 474 56 486 51 q 498 46 513 46 q 532 46 550 54 q 567 62 581 78 q 594 95 602 121 q 609 147 609 185 z"},"m":{"x_min":0,"x_max":791,"ha":791,"o":"m 38 0 l 95 478 l 137 478 q 151 478 159 471 q 167 464 166 449 l 159 360 q 196 421 242 453 q 288 484 339 484 q 392 484 416 451 q 440 417 440 354 q 478 421 526 453 q 574 484 627 484 q 693 484 720 438 q 748 391 737 304 l 701 0 l 616 0 l 652 304 q 656 332 655 353 q 654 373 648 387 q 642 400 630 407 q 618 414 598 414 q 576 414 553 403 q 531 393 511 373 q 490 353 472 323 q 455 294 441 255 l 411 0 l 327 0 l 362 304 q 366 332 365 353 q 365 373 360 387 q 354 400 342 407 q 330 414 310 414 q 285 414 262 402 q 239 390 219 368 q 199 347 181 315 q 164 284 150 245 l 121 0 z"},"#":{"x_min":0,"x_max":498,"ha":498,"o":"m 341 200 l 281 0 l 244 0 q 231 0 225 10 q 219 21 224 36 l 273 200 l 171 200 l 122 31 q 116 14 104 7 q 93 0 80 0 l 42 0 l 103 200 l 42 200 q 30 200 25 208 q 20 215 25 234 l 33 260 l 118 260 l 165 415 l 66 415 l 77 449 q 81 463 90 469 q 99 475 118 475 l 180 475 l 231 646 q 236 660 247 667 q 258 675 271 675 l 309 675 l 249 475 l 350 475 l 411 675 l 448 675 q 461 675 468 666 q 474 658 470 644 l 419 475 l 510 475 l 499 441 q 495 428 485 421 q 476 415 458 415 l 403 415 l 357 260 l 431 260 q 444 260 449 252 q 454 245 449 226 l 441 200 z m 187 260 l 289 260 l 335 415 l 233 415 z"},",":{"x_min":0,"x_max":250,"ha":250,"o":"m 48 59 q 48 69 52 79 q 56 89 63 96 q 71 104 81 108 q 92 112 104 112 q 119 112 130 107 q 141 102 148 93 q 156 83 159 71 q 163 59 163 44 q 163 23 157 0 q 151 -22 139 -45 q 128 -67 111 -89 q 95 -110 73 -128 l 58 -114 q 52 -108 52 -101 q 52 -95 60 -86 q 67 -77 77 -65 q 87 -52 96 -36 q 105 -20 109 0 l 104 0 q 79 0 63 17 q 48 33 48 59 z"},"n":{"x_min":0,"x_max":514,"ha":514,"o":"m 35 0 l 92 478 l 135 478 q 149 478 156 471 q 164 464 163 449 l 157 355 q 196 419 246 452 q 296 484 349 484 q 380 484 404 472 q 428 460 443 438 q 458 415 463 381 q 469 347 463 304 l 428 0 l 342 0 l 378 304 q 385 360 371 387 q 356 414 317 414 q 294 414 270 401 q 245 389 222 366 q 200 344 180 312 q 161 280 147 241 l 121 0 z"},"h":{"x_min":0,"x_max":514,"ha":514,"o":"m 39 0 l 123 694 l 208 694 l 169 371 q 207 427 254 456 q 301 484 350 484 q 381 484 405 472 q 429 460 444 438 q 458 415 464 381 q 469 347 464 304 l 428 0 l 343 0 l 378 304 q 385 360 371 387 q 357 414 318 414 q 296 414 273 403 q 250 391 229 370 q 207 349 188 319 q 168 289 155 252 l 125 0 z"},"z":{"x_min":0,"x_max":395,"ha":395,"o":"m 392 441 q 391 432 386 424 q 382 415 377 408 l 111 67 l 338 67 l 330 0 l 1 0 l 5 36 q 6 42 10 50 q 15 59 21 66 l 287 411 l 64 411 l 73 478 l 396 478 z"},"B":{"x_min":0,"x_max":544,"ha":544,"o":"m 44 0 l 123 642 l 317 642 q 368 642 405 632 q 442 622 466 603 q 490 584 501 557 q 513 531 513 498 q 513 469 504 443 q 496 417 479 395 q 462 374 437 357 q 411 340 377 330 q 437 317 467 284 q 497 252 497 201 q 497 157 480 120 q 464 83 433 56 q 403 30 359 15 q 315 0 260 0 z m 166 293 l 139 67 l 267 67 q 303 67 330 77 q 357 86 375 103 q 394 121 403 145 q 412 170 412 200 q 412 243 382 268 q 353 293 294 293 z m 173 353 l 278 353 q 315 353 343 363 q 371 372 389 389 q 407 406 417 430 q 426 454 426 483 q 426 529 397 552 q 369 575 309 575 l 201 575 z"},"K":{"x_min":0,"x_max":520,"ha":520,"o":"m 172 360 l 198 360 q 212 360 222 365 q 231 369 239 379 l 435 623 q 445 634 455 638 q 465 642 479 642 l 552 642 l 324 364 q 306 344 288 336 q 299 332 308 324 q 316 317 323 305 l 487 0 l 413 0 q 396 0 390 5 q 383 10 378 18 l 237 273 q 230 285 222 289 q 214 294 196 294 l 164 294 l 127 0 l 42 0 l 121 642 l 207 642 z"},"R":{"x_min":0,"x_max":543,"ha":543,"o":"m 170 269 l 137 0 l 52 0 l 130 642 l 303 642 q 355 642 394 631 q 432 620 457 600 q 482 580 494 551 q 506 523 506 488 q 506 449 494 416 q 482 382 460 356 q 438 329 406 310 q 375 292 335 282 q 351 271 360 255 l 501 0 l 425 0 q 402 0 392 19 l 269 248 q 264 259 256 264 q 248 269 230 269 z m 208 575 l 178 331 l 261 331 q 300 331 330 341 q 359 352 380 371 q 400 391 410 417 q 420 443 420 475 q 420 523 389 549 q 357 575 295 575 z"},"T":{"x_min":0,"x_max":487,"ha":487,"o":"m 527 642 l 519 570 l 330 570 l 260 0 l 174 0 l 244 570 l 55 570 l 63 642 z"},"P":{"x_min":0,"x_max":517,"ha":517,"o":"m 167 240 l 137 0 l 52 0 l 130 642 l 312 642 q 364 642 402 629 q 441 617 466 595 q 491 572 503 541 q 516 509 516 471 q 516 420 499 378 q 482 336 450 305 q 417 274 370 257 q 323 240 262 240 z m 208 575 l 175 308 l 270 308 q 309 308 338 319 q 368 331 388 352 q 408 372 419 401 q 429 429 429 463 q 429 515 398 545 q 367 575 303 575 z"},"|":{"x_min":0,"x_max":460,"ha":460,"o":"m 168 723 l 235 723 l 235 -161 l 168 -161 z"},"t":{"x_min":0,"x_max":335,"ha":335,"o":"m 79 94 q 79 97 79 102 q 79 107 80 116 q 81 125 82 137 q 83 150 85 169 l 115 406 l 60 406 q 53 406 48 411 q 44 416 45 425 l 49 459 l 125 470 l 161 616 q 164 624 168 628 q 173 632 181 632 l 227 632 l 207 469 l 336 469 l 329 406 l 199 406 l 170 173 q 167 154 166 142 q 165 130 164 124 q 163 117 163 114 q 163 110 163 109 q 163 85 174 74 q 186 62 207 62 q 220 62 229 66 q 239 69 246 74 q 253 78 258 82 q 263 85 267 85 q 273 85 277 77 l 295 36 q 272 15 242 4 q 211 -7 181 -7 q 133 -7 106 18 q 79 43 79 94 z"},"M":{"x_min":0,"x_max":855,"ha":855,"o":"m 410 226 q 413 217 416 208 q 418 199 421 189 q 429 208 440 226 l 727 626 q 733 636 739 639 q 745 642 757 642 l 820 642 l 741 0 l 665 0 l 726 471 q 727 481 729 494 q 732 507 735 520 l 451 112 q 439 93 417 93 l 405 93 q 383 93 375 112 l 189 519 q 189 506 188 494 q 188 482 187 473 l 128 0 l 52 0 l 131 642 l 193 642 q 205 642 210 639 q 216 636 223 626 l 410 226 z"},"g":{"x_min":0,"x_max":514,"ha":514,"o":"m 425 345 q 425 322 420 303 q 414 285 406 269 q 397 252 387 239 q 377 225 368 211 q 359 197 354 182 q 348 167 348 150 q 348 137 353 126 q 357 114 365 103 q 373 92 382 80 q 391 69 398 56 q 406 43 411 29 q 417 14 417 -4 q 417 -38 400 -68 q 384 -98 354 -121 q 323 -144 280 -158 q 236 -171 182 -171 q 139 -171 103 -163 q 67 -154 42 -139 q 16 -123 2 -101 q -12 -79 -12 -53 q -12 -22 1 1 q 14 24 37 41 q 60 58 90 68 q 120 79 155 84 q 189 89 225 89 q 262 89 297 84 q 292 93 289 103 q 286 112 286 124 q 286 138 291 154 q 295 169 306 188 q 287 176 263 169 q 240 163 210 163 q 181 163 156 172 q 130 181 111 198 q 92 216 81 242 q 70 269 70 304 q 70 338 83 370 q 96 403 121 428 q 146 454 184 469 q 221 484 269 484 q 323 484 364 460 l 502 460 l 499 432 q 498 424 493 418 q 489 412 480 410 l 416 399 q 425 375 425 345 z m 233 216 q 261 216 282 227 q 303 238 318 255 q 332 273 340 295 q 347 318 347 341 q 347 382 324 404 q 302 426 261 426 q 233 426 212 416 q 191 405 177 388 q 163 371 155 349 q 148 327 148 303 q 148 261 171 238 q 193 216 233 216 z m 338 -11 q 338 1 336 11 q 333 21 329 31 q 261 41 212 39 q 163 36 131 25 q 99 14 84 -4 q 69 -21 69 -42 q 69 -76 100 -94 q 131 -111 188 -111 q 222 -111 250 -103 q 278 -95 297 -82 q 317 -68 328 -50 q 338 -31 338 -11 z"},"j":{"x_min":0,"x_max":239,"ha":239,"o":"m 190 478 l 127 -35 q 124 -63 113 -88 q 102 -113 83 -132 q 64 -150 38 -161 q 12 -171 -21 -171 q -38 -171 -51 -169 q -63 -167 -75 -162 l -66 -116 q -64 -107 -57 -107 q -50 -107 -33 -107 q 3 -107 21 -90 q 38 -73 43 -35 l 106 478 z m 222 626 q 222 615 217 604 q 211 593 203 585 q 195 577 184 572 q 173 567 162 567 q 150 567 139 572 q 128 577 120 585 q 112 593 107 604 q 102 615 102 627 q 102 640 107 651 q 112 662 120 670 q 128 678 139 683 q 149 688 161 688 q 172 688 184 683 q 195 678 203 670 q 211 662 217 650 q 222 639 222 626 z"},"i":{"x_min":0,"x_max":229,"ha":229,"o":"m 186 478 l 128 0 l 44 0 l 102 478 z m 218 627 q 218 615 213 604 q 208 593 199 585 q 191 577 180 572 q 169 567 158 567 q 147 567 137 572 q 126 577 118 585 q 110 593 105 604 q 101 615 101 627 q 101 639 105 650 q 110 662 118 670 q 126 678 137 683 q 147 688 159 688 q 170 688 181 683 q 191 678 200 670 q 208 662 213 651 q 218 640 218 627 z"},"y":{"x_min":0,"x_max":447,"ha":447,"o":"m 150 -142 q 140 -161 121 -161 l 58 -161 l 161 28 l 38 478 l 109 478 q 119 478 124 472 q 129 467 131 459 l 205 162 q 208 152 209 142 q 211 131 212 121 q 216 132 221 142 q 226 152 230 162 l 377 461 q 381 469 388 473 q 395 478 402 478 l 471 478 z"},"@":{"x_min":0,"x_max":894,"ha":894,"o":"m 578 87 q 545 87 526 105 q 507 122 504 158 q 475 121 443 105 q 412 89 377 89 q 354 89 338 97 q 321 105 310 119 q 299 134 294 153 q 289 172 289 195 q 289 223 296 253 q 304 282 318 310 q 333 338 355 363 q 376 387 405 406 q 433 424 467 434 q 500 445 541 445 q 570 445 592 440 q 614 436 633 426 l 571 256 q 558 220 556 197 q 553 175 558 162 q 562 149 573 145 q 583 140 596 140 q 620 140 643 157 q 666 173 683 203 q 701 233 711 274 q 722 315 722 365 q 722 419 706 460 q 690 501 662 529 q 633 557 593 571 q 553 585 505 585 q 463 585 423 573 q 384 561 349 537 q 314 514 285 481 q 256 448 235 407 q 214 366 203 318 q 191 270 191 216 q 191 149 210 98 q 229 47 263 13 q 296 -22 343 -40 q 389 -58 445 -58 q 512 -58 562 -42 q 613 -27 648 -6 q 656 -1 662 -1 q 667 0 671 -2 q 675 -4 678 -8 q 681 -11 682 -16 l 688 -40 q 638 -74 576 -93 q 514 -113 438 -113 q 370 -113 313 -90 q 256 -68 216 -26 q 175 16 153 76 q 130 137 130 212 q 130 272 145 327 q 159 382 184 429 q 209 477 245 516 q 280 555 322 582 q 365 610 413 625 q 461 640 512 640 q 567 640 616 622 q 666 603 702 568 q 739 532 760 481 q 781 430 781 365 q 781 305 765 254 q 749 204 721 167 q 693 129 656 108 q 619 87 578 87 z m 401 144 q 414 144 427 148 q 441 153 455 165 q 469 177 482 197 q 495 217 506 249 l 557 388 q 540 392 521 392 q 487 392 456 375 q 426 359 403 332 q 380 305 367 272 q 354 238 354 204 q 354 177 365 160 q 377 144 401 144 z"},".":{"x_min":0,"x_max":252,"ha":252,"o":""},"p":{"x_min":0,"x_max":514,"ha":514,"o":"m 16 -161 l 94 478 l 137 478 q 151 478 158 471 q 166 464 165 449 l 157 346 q 176 377 198 403 q 221 429 245 447 q 270 465 297 475 q 324 484 352 484 q 417 484 453 440 q 488 395 488 309 q 488 270 480 231 q 472 193 456 158 q 441 123 419 93 q 397 62 370 41 q 343 19 312 6 q 280 -7 246 -7 q 208 -7 177 7 q 146 21 125 47 l 100 -161 z m 320 416 q 295 416 271 402 q 246 388 223 362 q 200 337 180 302 q 161 267 146 226 l 132 106 q 151 80 178 70 q 205 60 233 60 q 272 60 304 82 q 335 104 357 138 q 379 173 391 216 q 403 259 403 301 q 403 357 382 387 q 360 416 320 416 z"},"X":{"x_min":0,"x_max":519,"ha":519,"o":"m 216 343 l 73 642 l 151 642 q 160 642 165 639 q 169 636 171 629 l 279 390 q 281 394 283 397 q 285 401 288 405 l 441 628 q 450 642 462 642 l 552 642 l 334 346 l 495 0 l 418 0 q 409 0 404 5 q 399 10 396 16 l 274 293 q 271 288 267 282 l 84 16 q 73 0 56 0 l -30 0 z"},"*":{"x_min":0,"x_max":498,"ha":498,"o":"m 245 407 l 256 500 q 257 509 260 517 q 262 524 266 532 q 260 525 254 521 q 247 517 239 512 l 160 464 l 145 500 l 224 547 q 240 557 257 558 q 241 560 227 570 l 159 617 l 183 652 l 251 605 q 258 600 263 595 q 269 589 273 583 q 268 597 271 616 l 282 709 l 323 709 l 311 616 q 310 606 308 598 q 305 590 301 583 q 306 589 313 595 q 320 600 329 605 l 408 652 l 424 617 l 344 570 q 335 565 328 562 q 320 559 312 558 q 328 556 341 547 l 410 499 l 386 464 l 317 512 q 310 517 305 521 q 299 525 295 531 q 300 518 297 500 l 286 407 z"},"Y":{"x_min":0,"x_max":487,"ha":487,"o":"m 293 257 l 262 0 l 175 0 l 207 256 l 55 642 l 131 642 q 142 642 148 636 q 154 631 158 622 l 247 366 q 256 342 260 318 q 266 330 273 341 q 280 353 288 365 l 438 622 q 443 629 451 635 q 458 642 469 642 l 541 642 z"},"c":{"x_min":0,"x_max":416,"ha":416,"o":"m 394 86 q 369 59 346 41 q 324 23 301 12 q 278 2 254 -2 q 230 -7 202 -7 q 160 -7 127 8 q 95 22 73 48 q 51 74 40 110 q 28 146 28 189 q 28 247 47 300 q 65 354 98 395 q 131 436 177 460 q 222 484 277 484 q 325 484 358 468 q 390 451 415 418 l 388 386 q 385 382 381 380 q 376 377 372 377 q 365 377 358 383 q 352 389 341 396 q 331 404 315 410 q 299 416 275 416 q 242 416 213 398 q 184 381 162 350 q 140 320 127 278 q 114 237 114 189 q 114 160 121 136 q 128 112 141 95 q 154 79 174 70 q 194 61 220 61 q 252 61 274 70 q 295 79 310 90 q 325 102 336 111 q 346 120 356 120 q 365 120 372 112 l 394 86 z"},"!":{"x_min":0,"x_max":326,"ha":326,"o":"m 258 675 l 225 405 q 223 384 219 364 q 216 344 212 324 q 208 303 203 281 q 198 260 193 235 l 137 235 q 137 260 138 281 q 139 303 140 324 q 141 344 142 364 q 144 384 146 405 l 180 675 z m 89 52 q 89 64 94 75 q 99 86 107 95 q 115 103 125 108 q 136 112 149 112 q 161 112 172 108 q 183 103 191 95 q 199 86 204 75 q 208 64 208 52 q 208 40 204 29 q 199 18 191 10 q 183 2 172 -2 q 161 -7 149 -7 q 136 -7 125 -2 q 115 2 107 10 q 99 18 94 29 q 89 40 89 52 z"},"/":{"x_min":0,"x_max":388,"ha":388,"o":"m 41 -11 q 33 -27 19 -35 q 5 -43 -8 -43 l -43 -43 l 354 653 q 361 667 373 676 q 386 684 401 684 l 437 684 z"},"[":{"x_min":0,"x_max":307,"ha":307,"o":"m 38 -135 l 143 722 l 306 722 l 302 690 q 301 681 294 674 q 287 668 277 668 l 206 668 l 113 -81 l 185 -81 q 195 -81 200 -87 q 206 -94 205 -104 l 201 -135 z"},"6":{"x_min":0,"x_max":507,"ha":507,"o":"m 249 422 q 240 411 231 401 q 223 392 215 382 q 239 397 265 405 q 292 414 322 414 q 356 414 386 402 q 416 390 438 368 q 460 346 473 313 q 485 281 485 240 q 485 188 467 142 q 448 97 415 64 q 382 31 337 12 q 292 -7 240 -7 q 197 -7 163 7 q 129 21 105 46 q 82 72 69 108 q 57 144 57 188 q 57 218 63 247 q 69 275 82 303 q 95 332 114 362 q 133 392 160 425 l 346 655 q 353 664 366 669 q 378 675 393 675 l 466 675 z m 136 185 q 136 158 143 135 q 150 112 164 96 q 178 80 199 70 q 220 61 247 61 q 280 61 309 73 q 337 86 357 108 q 378 131 390 161 q 401 192 401 228 q 401 256 393 279 q 385 301 370 317 q 355 333 334 342 q 313 350 288 350 q 254 350 226 337 q 198 324 178 301 q 158 278 147 248 q 136 218 136 185 z"},"r":{"x_min":0,"x_max":343,"ha":343,"o":"m 35 0 l 93 478 l 135 478 q 149 478 157 471 q 165 464 164 449 l 156 341 q 176 382 198 412 q 221 442 246 459 q 271 477 297 480 q 324 484 352 473 l 336 391 q 272 416 224 373 q 176 331 145 218 l 119 0 z"},"2":{"x_min":0,"x_max":507,"ha":507,"o":""},"{":{"x_min":0,"x_max":314,"ha":314,"o":"m 101 213 q 101 238 88 253 q 75 269 50 269 l 56 318 q 125 318 125 433 q 125 443 124 456 q 124 468 123 480 q 122 493 121 506 q 121 519 121 529 q 121 575 131 611 q 142 646 163 671 q 185 696 216 709 q 247 722 288 722 l 311 722 l 307 685 q 306 676 298 672 q 291 668 286 668 l 278 668 q 243 668 220 641 q 198 614 195 564 q 192 520 194 480 q 196 439 194 401 q 192 380 186 362 q 179 344 168 330 q 158 316 144 307 q 130 297 115 293 q 140 285 155 263 q 170 242 170 212 q 170 184 163 157 q 156 130 148 103 q 139 76 132 49 q 125 21 125 -8 q 125 -41 141 -61 q 157 -81 186 -81 l 194 -81 q 199 -81 205 -85 q 211 -89 210 -99 l 206 -135 l 182 -135 q 149 -135 125 -126 q 101 -117 85 -100 q 69 -83 61 -60 q 53 -37 53 -10 q 53 21 61 50 q 68 78 77 105 q 86 132 93 158 q 101 185 101 213 z"},"9":{"x_min":0,"x_max":507,"ha":507,"o":""}," ":{"x_min":0,"x_max":226,"ha":226,"o":""},"I":{"x_min":0,"x_max":252,"ha":252,"o":"m 143 0 l 56 0 l 135 642 l 221 642 z"},"H":{"x_min":0,"x_max":623,"ha":623,"o":"m 526 0 l 439 0 l 475 292 l 165 292 l 129 0 l 42 0 l 122 642 l 208 642 l 173 354 l 482 354 l 518 642 l 604 642 z"},"4":{"x_min":0,"x_max":507,"ha":507,"o":""},"~":{"x_min":0,"x_max":498,"ha":498,"o":"m 305 290 q 336 290 353 309 q 370 329 370 362 l 439 362 q 439 331 431 304 q 422 277 406 258 q 389 239 365 229 q 341 218 311 218 q 286 218 262 226 q 238 234 216 243 q 193 252 173 260 q 153 268 136 268 q 105 268 89 248 q 72 228 71 195 l 2 195 q 2 227 11 253 q 20 279 36 298 q 52 317 76 328 q 100 338 131 338 q 156 338 180 331 q 204 323 226 314 q 248 305 268 297 q 288 290 305 290 z"},"D":{"x_min":0,"x_max":615,"ha":615,"o":"m 597 367 q 597 285 572 217 q 546 149 502 101 q 458 53 396 26 q 334 0 262 0 l 42 0 l 121 642 l 341 642 q 400 642 448 621 q 495 601 528 565 q 561 529 579 478 q 597 427 597 367 z m 508 365 q 508 413 496 451 q 484 490 462 517 q 439 543 406 558 q 374 572 333 572 l 199 572 l 137 69 l 271 69 q 323 69 367 90 q 411 110 442 148 q 474 186 491 241 q 508 295 508 365 z"},"^":{"x_min":0,"x_max":498,"ha":498,"o":"m 470 371 l 408 371 q 399 371 394 375 q 388 380 384 387 l 293 552 q 281 572 274 593 q 269 573 257 551 l 167 386 q 163 380 157 375 q 152 371 142 371 l 77 371 l 246 675 l 301 675 z"},"0":{"x_min":0,"x_max":507,"ha":507,"o":"m 511 386 q 511 286 489 212 q 467 139 429 90 q 392 41 343 17 q 293 -7 238 -7 q 196 -7 161 10 q 125 26 100 59 q 74 91 60 140 q 46 189 46 255 q 46 355 68 429 q 89 502 127 551 q 164 600 214 624 q 263 648 318 648 q 360 648 395 632 q 431 616 456 583 q 482 550 496 501 q 511 452 511 386 z m 429 389 q 429 441 420 478 q 411 515 395 538 q 378 561 357 572 q 335 582 310 582 q 275 582 242 564 q 209 547 184 508 q 158 468 143 406 q 127 343 127 252 q 127 200 136 163 q 146 126 162 104 q 178 81 199 70 q 221 60 245 60 q 280 60 313 77 q 346 94 372 133 q 397 172 413 235 q 429 298 429 389 z"},"F":{"x_min":0,"x_max":459,"ha":459,"o":"m 474 572 l 198 572 l 170 346 l 406 346 l 396 276 l 162 276 l 128 0 l 42 0 l 121 642 l 482 642 z"},"`":{"x_min":0,"x_max":291,"ha":291,"o":"m 228 682 q 242 682 249 677 q 256 672 260 662 l 310 548 l 263 548 q 253 548 248 551 q 242 554 237 561 l 149 682 z"},"k":{"x_min":0,"x_max":455,"ha":455,"o":"m 206 694 l 156 286 l 170 286 q 180 286 186 289 q 192 292 200 299 l 356 461 q 364 469 371 473 q 378 478 390 478 l 465 478 l 283 290 q 275 282 268 276 q 261 270 253 265 q 261 260 267 252 q 272 245 278 236 l 418 0 l 345 0 q 335 0 328 4 q 321 7 316 16 l 196 212 q 190 222 184 225 q 178 228 165 228 l 149 228 l 121 0 l 37 0 l 122 694 z"},"u":{"x_min":0,"x_max":514,"ha":514,"o":"m 170 478 l 134 174 q 127 118 142 91 q 156 64 195 64 q 218 64 242 76 q 266 88 288 110 q 311 131 330 162 q 349 193 363 231 l 392 478 l 478 478 l 420 0 l 377 0 q 345 0 347 31 l 354 118 q 314 56 265 25 q 216 -7 164 -7 q 132 -7 108 5 q 84 18 70 41 q 55 63 49 97 q 43 131 49 174 l 84 478 z"},"]":{"x_min":0,"x_max":307,"ha":307,"o":"m 20 -104 q 21 -94 28 -87 q 35 -81 45 -81 l 116 -81 l 208 668 l 137 668 q 127 668 122 674 q 116 681 117 690 l 121 722 l 285 722 l 179 -135 l 16 -135 z"},"U":{"x_min":0,"x_max":642,"ha":642,"o":"m 300 67 q 339 67 372 81 q 404 95 429 119 q 453 144 469 177 q 484 211 489 251 l 537 642 l 624 642 l 575 251 q 568 196 545 148 q 522 101 485 66 q 448 32 399 12 q 350 -7 292 -7 q 233 -7 189 12 q 146 32 117 66 q 89 101 77 148 q 65 196 72 251 l 120 642 l 206 642 l 158 251 q 153 211 160 178 q 167 144 185 119 q 203 95 232 81 q 261 67 300 67 z"},"o":{"x_min":0,"x_max":513,"ha":513,"o":"m 228 60 q 266 60 297 79 q 328 97 349 128 q 371 159 383 199 q 395 240 395 284 q 395 351 365 384 q 335 418 280 418 q 242 418 211 400 q 181 381 159 351 q 137 320 125 280 q 113 239 113 195 q 113 128 143 94 q 172 60 228 60 z m 221 -7 q 178 -7 143 7 q 107 21 81 46 q 56 72 42 110 q 27 147 27 195 q 27 255 47 308 q 67 360 102 400 q 137 439 184 462 q 232 485 287 485 q 330 485 365 471 q 401 458 427 432 q 452 406 467 369 q 481 331 481 284 q 481 224 461 171 q 441 119 406 79 q 371 40 323 16 q 276 -7 221 -7 z"},"N":{"x_min":0,"x_max":645,"ha":645,"o":"m 168 642 q 180 642 185 639 q 190 637 196 627 l 485 140 q 486 150 487 160 q 487 169 488 178 l 546 642 l 622 642 l 543 0 l 500 0 q 490 0 483 4 q 476 8 471 17 l 181 503 q 181 495 180 487 q 180 479 179 472 l 121 0 l 45 0 l 124 642 l 168 642 z"},"+":{"x_min":0,"x_max":498,"ha":498,"o":"m 321 549 l 296 348 l 489 348 l 481 285 l 289 285 l 264 83 l 196 83 l 221 285 l 30 285 l 38 348 l 229 348 l 254 549 z"},"G":{"x_min":0,"x_max":631,"ha":631,"o":"m 328 62 q 353 62 374 65 q 396 67 414 72 q 433 77 450 84 q 467 91 483 100 l 501 243 l 408 243 q 399 243 395 247 q 390 252 391 259 l 396 308 l 587 308 l 557 62 q 531 45 505 32 q 478 19 448 10 q 419 2 386 -2 q 353 -7 314 -7 q 253 -7 204 14 q 154 35 119 73 q 84 110 65 162 q 46 214 46 277 q 46 332 58 381 q 70 430 92 471 q 114 513 146 546 q 178 579 217 602 q 256 625 302 637 q 348 649 399 649 q 438 649 470 643 q 501 636 527 625 q 553 614 574 599 q 595 583 612 565 l 585 529 q 570 509 549 522 q 539 528 527 537 q 514 546 496 554 q 479 562 454 568 q 429 574 394 574 q 336 574 288 553 q 241 533 206 494 q 172 456 153 401 q 134 347 134 280 q 134 229 148 189 q 162 148 187 120 q 212 92 248 77 q 284 62 328 62 z"},"q":{"x_min":0,"x_max":514,"ha":514,"o":"m 394 -161 l 340 -161 q 322 -161 316 -150 q 310 -139 312 -125 l 343 120 q 326 91 305 67 q 284 44 261 28 q 238 11 213 2 q 188 -7 160 -7 q 129 -7 104 4 q 79 16 61 37 q 43 59 33 91 q 24 123 24 165 q 24 207 35 247 q 47 287 68 322 q 88 357 118 387 q 147 417 183 438 q 218 460 260 472 q 301 484 346 484 q 378 484 410 479 q 441 475 470 462 z m 192 64 q 217 64 241 79 q 266 93 287 119 q 309 144 328 179 q 347 214 361 256 l 381 418 q 370 420 358 421 q 346 422 335 422 q 289 422 248 402 q 207 382 176 349 q 145 315 127 271 q 109 228 109 179 q 109 64 192 64 z"},"d":{"x_min":0,"x_max":514,"ha":514,"o":"m 370 0 q 353 0 347 9 q 341 17 342 29 l 351 131 q 332 100 310 74 q 288 49 264 31 q 240 13 213 3 q 187 -7 160 -7 q 97 -7 61 38 q 25 83 25 169 q 25 208 34 246 q 42 285 57 320 q 72 355 94 385 q 116 415 142 437 q 169 459 200 472 q 231 484 265 484 q 302 484 332 470 q 362 457 383 431 l 416 694 l 500 694 l 415 0 z m 192 62 q 215 62 240 76 q 264 90 286 115 q 309 141 328 175 q 347 210 361 251 l 376 372 q 357 397 331 408 q 305 418 278 418 q 252 418 229 408 q 207 398 188 381 q 170 363 156 340 q 141 316 131 289 q 121 263 116 234 q 110 205 110 177 q 110 121 132 91 q 153 62 192 62 z"},"1":{"x_min":0,"x_max":507,"ha":507,"o":"m 118 60 l 253 60 l 307 500 q 308 510 310 519 q 311 529 313 539 l 189 441 q 184 437 178 435 q 172 434 167 435 q 162 436 158 438 q 155 441 153 444 l 132 478 l 339 643 l 403 643 l 332 60 l 454 60 l 447 0 l 111 0 z"},"5":{"x_min":0,"x_max":507,"ha":507,"o":""}}}
